<svg width="750pt" height="500pt" version="1.2" viewBox="0 0 750 500" xmlns="http://www.w3.org/2000/svg">
 <defs>
  <clipPath id="clip1">
   <path d="m750 500h-750v-500h750-43.988c-22.145 6.4844-22.535 34.32-22.535 34.32-0.34766 2.2617-0.50781 4.4297-0.50781 6.5039-0.003906 26.254 25.734 37.797 30.742 39.789-0.77344-0.24219-1.5781-0.34766-2.4062-0.34766-7.1602 0-15.746 8.1523-15.746 8.1523-4.6719-14.387-18.566-17.082-28.328-17.082-5.8594 0-10.227 0.96875-10.227 0.96875 0.89844-1.9688 1.2891-3.8203 1.2891-5.5508 0.011719-10.395-13.953-16.316-13.953-16.316-3.9062-5.2695-7.9648-7.125-11.746-7.125-9.0195 0-16.453 10.578-16.453 10.578-1.2422-0.92578-2.4609-1.7812-3.6562-2.5547-7.5938-4.957-14.109-6.9062-19.664-6.9062-15.945 0-23.941 16.09-26.723 23.301-0.80859 2.082-1.1758 3.4219-1.1758 3.4219-6.1641-5.8516-12.488-7.9961-18.449-7.9961-5.5781 0-10.844 1.8828-15.352 4.3555-8.668 4.7539-14.543 11.699-14.543 11.699-6.1094-3.3594-11.504-5.0938-16.207-5.7305-0.63281-0.085938-1.2422-0.12891-1.832-0.12891-13.062 0-15.484 20.305-1.5312 22.648 6.9492 1.1641 14.234 1.4766 20.062 1.4766 6.7852 0 11.594-0.42578 11.594-0.42578 11.859 8.8438 24.484 11.723 35.902 11.723 21.273-0.003907 38.336-9.9961 38.336-9.9961-1.125 13.547 32.621 20.449 33.914 20.715-0.41406-0.039063-3.875-0.35938-8.2344-0.35938-9.6953 0-23.828 1.5742-18.773 11.297 4.5625 8.7734 16.188 10.484 24.562 10.484 5.3633 0 9.3945-0.69922 9.3945-0.69922 9.0977 2.7305 16.84 3.7852 23.383 3.7852 22.434 0 30.715-12.418 30.715-12.418 11.809 7.457 23.84 9.8477 34.406 9.8438 6.625 0 12.676-0.9375 17.73-2.1523v360.73m-643.78-374.41c13.508 10.039 25.395 13.406 35.262 13.406 20.09 0 31.809-13.961 31.809-13.961s1.1719 0.046876 3.1094 0.046876c9.3672 0 36.609-1.1406 35.691-14.457-0.5625-8.1836-11.324-10.191-21.754-10.191-3.1172 0-6.2031 0.17969-8.9805 0.42578-6.1875 0.55859-10.84 1.4492-10.84 1.4492-0.69531-18.793-16.254-22.293-27.734-22.293-6.8008 0-12.176 1.2305-12.176 1.2305-6.0195-12.902-17.082-16.016-26.359-16.016-8.6602 0-15.766 2.7109-15.766 2.7109 0.375-2.3945 0.55078-4.6016 0.55078-6.6406 0.011719-20.379-17.137-23.461-19.645-23.805-0.19922-0.027344-0.30469-0.039062-0.30469-0.039062 1.2344-14.809 21.391-18.629 31.707-19.613 6.7656-0.64844 13.223-3.3125 18.293-7.832 3.5586-3.1758 5.75-6.5742 6.9531-10.016h-126.04v116.23c7.293 6.4727 15.613 8.5391 23.254 8.5391 4.3906 0 8.5547-0.68359 12.176-1.6016 7.457-1.8906 12.59-4.7773 12.59-4.7773 12.91 11.352 24.836 14.75 34.488 14.75 14.379 0 23.711-7.543 23.711-7.543"/>
  </clipPath>
  <clipPath id="clip2">
   <path d="m750 500h-750v-500h750-43.988c-22.145 6.4844-22.535 34.32-22.535 34.32-0.34766 2.2617-0.50781 4.4297-0.50781 6.5039-0.003906 26.254 25.734 37.797 30.742 39.789-0.77344-0.24219-1.5781-0.34766-2.4062-0.34766-7.1602 0-15.746 8.1523-15.746 8.1523-4.6719-14.387-18.566-17.082-28.328-17.082-5.8594 0-10.227 0.96875-10.227 0.96875 0.89844-1.9688 1.2891-3.8203 1.2891-5.5508 0.011719-10.395-13.953-16.316-13.953-16.316-3.9062-5.2695-7.9648-7.125-11.746-7.125-9.0195 0-16.453 10.578-16.453 10.578-1.2422-0.92578-2.4609-1.7812-3.6562-2.5547-7.5938-4.957-14.109-6.9062-19.664-6.9062-15.945 0-23.941 16.09-26.723 23.301-0.80859 2.082-1.1758 3.4219-1.1758 3.4219-6.1641-5.8516-12.488-7.9961-18.449-7.9961-5.5781 0-10.844 1.8828-15.352 4.3555-8.668 4.7539-14.543 11.699-14.543 11.699-6.1094-3.3594-11.504-5.0938-16.207-5.7305-0.63281-0.085938-1.2422-0.12891-1.832-0.12891-13.062 0-15.484 20.305-1.5312 22.648 6.9492 1.1641 14.234 1.4766 20.062 1.4766 6.7852 0 11.594-0.42578 11.594-0.42578 11.859 8.8438 24.484 11.723 35.902 11.723 21.273-0.003907 38.336-9.9961 38.336-9.9961-1.125 13.547 32.621 20.449 33.914 20.715-0.41406-0.039063-3.875-0.35938-8.2344-0.35938-9.6953 0-23.828 1.5742-18.773 11.297 4.5625 8.7734 16.188 10.484 24.562 10.484 5.3633 0 9.3945-0.69922 9.3945-0.69922 9.0977 2.7305 16.84 3.7852 23.383 3.7852 22.434 0 30.715-12.418 30.715-12.418 11.809 7.457 23.84 9.8477 34.406 9.8438 6.625 0 12.676-0.9375 17.73-2.1523v360.73m-643.78-374.41c13.508 10.039 25.395 13.406 35.262 13.406 20.09 0 31.809-13.961 31.809-13.961s1.1719 0.046876 3.1094 0.046876c9.3672 0 36.609-1.1406 35.691-14.457-0.5625-8.1836-11.324-10.191-21.754-10.191-3.1172 0-6.2031 0.17969-8.9805 0.42578-6.1875 0.55859-10.84 1.4492-10.84 1.4492-0.69531-18.793-16.254-22.293-27.734-22.293-6.8008 0-12.176 1.2305-12.176 1.2305-6.0195-12.902-17.082-16.016-26.359-16.016-8.6602 0-15.766 2.7109-15.766 2.7109 0.375-2.3945 0.55078-4.6016 0.55078-6.6406 0.011719-20.379-17.137-23.461-19.645-23.805-0.19922-0.027344-0.30469-0.039062-0.30469-0.039062 1.2344-14.809 21.391-18.629 31.707-19.613 6.7656-0.64844 13.223-3.3125 18.293-7.832 3.5586-3.1758 5.75-6.5742 6.9531-10.016h-126.04v116.23c7.293 6.4727 15.613 8.5391 23.254 8.5391 4.3906 0 8.5547-0.68359 12.176-1.6016 7.457-1.8906 12.59-4.7773 12.59-4.7773 12.91 11.352 24.836 14.75 34.488 14.75 14.379 0 23.711-7.543 23.711-7.543"/>
  </clipPath>
  <linearGradient id="linear0" x1="-1.4319" x2=".86699" gradientTransform="matrix(0 -217.49 217.49 0 375 188.57)" gradientUnits="userSpaceOnUse">
   <stop stop-color="#fbed9d" offset="0"/>
   <stop stop-color="#fbed9d" offset=".5"/>
   <stop stop-color="#fbed9d" offset=".5625"/>
   <stop stop-color="#fbed9d" offset=".59375"/>
   <stop stop-color="#fbed9d" offset=".60938"/>
   <stop stop-color="#fbed9d" offset=".61719"/>
   <stop stop-color="#faed9d" offset=".62109"/>
   <stop stop-color="#faed9e" offset=".625"/>
   <stop stop-color="#f9ed9f" offset=".62891"/>
   <stop stop-color="#f8eda0" offset=".63281"/>
   <stop stop-color="#f7eca1" offset=".63672"/>
   <stop stop-color="#f5eca2" offset=".64062"/>
   <stop stop-color="#f5eca3" offset=".64453"/>
   <stop stop-color="#f4eca4" offset=".64844"/>
   <stop stop-color="#f2eba6" offset=".65234"/>
   <stop stop-color="#f1eba7" offset=".65625"/>
   <stop stop-color="#f0eba8" offset=".66016"/>
   <stop stop-color="#efeba9" offset=".66406"/>
   <stop stop-color="#eeebab" offset=".66797"/>
   <stop stop-color="#ecebac" offset=".67188"/>
   <stop stop-color="#ebebad" offset=".67578"/>
   <stop stop-color="#eaeaae" offset=".67969"/>
   <stop stop-color="#e9eab0" offset=".68359"/>
   <stop stop-color="#e7eab1" offset=".6875"/>
   <stop stop-color="#e7eab2" offset=".69141"/>
   <stop stop-color="#e6eab3" offset=".69531"/>
   <stop stop-color="#e4eab5" offset=".69922"/>
   <stop stop-color="#e3e9b6" offset=".70312"/>
   <stop stop-color="#e2e9b7" offset=".70703"/>
   <stop stop-color="#e1e9b9" offset=".71094"/>
   <stop stop-color="#e0e9ba" offset=".71484"/>
   <stop stop-color="#dfe8bc" offset=".71875"/>
   <stop stop-color="#dee8bd" offset=".72266"/>
   <stop stop-color="#dde8be" offset=".72656"/>
   <stop stop-color="#dce8bf" offset=".73047"/>
   <stop stop-color="#dbe7c0" offset=".73438"/>
   <stop stop-color="#dae7c2" offset=".73828"/>
   <stop stop-color="#d9e8c3" offset=".74219"/>
   <stop stop-color="#d7e7c4" offset=".74609"/>
   <stop stop-color="#d6e7c5" offset=".75"/>
   <stop stop-color="#d5e7c6" offset=".75391"/>
   <stop stop-color="#d4e6c7" offset=".75781"/>
   <stop stop-color="#d3e6c8" offset=".76172"/>
   <stop stop-color="#d2e6ca" offset=".76562"/>
   <stop stop-color="#d1e6cb" offset=".76953"/>
   <stop stop-color="#d0e5cc" offset=".77344"/>
   <stop stop-color="#cfe5cd" offset=".77734"/>
   <stop stop-color="#cee4ce" offset=".78125"/>
   <stop stop-color="#cde4d0" offset=".78516"/>
   <stop stop-color="#cbe4d1" offset=".78906"/>
   <stop stop-color="#cae4d2" offset=".79297"/>
   <stop stop-color="#c9e4d4" offset=".79688"/>
   <stop stop-color="#c9e4d5" offset=".80078"/>
   <stop stop-color="#c8e3d6" offset=".80469"/>
   <stop stop-color="#c7e3d8" offset=".80859"/>
   <stop stop-color="#c6e3d9" offset=".8125"/>
   <stop stop-color="#c5e3da" offset=".81641"/>
   <stop stop-color="#c3e2db" offset=".82031"/>
   <stop stop-color="#c3e2dd" offset=".82422"/>
   <stop stop-color="#c2e2de" offset=".82812"/>
   <stop stop-color="#c1e2df" offset=".83203"/>
   <stop stop-color="#c0e2e0" offset=".83594"/>
   <stop stop-color="#bfe2e1" offset=".83984"/>
   <stop stop-color="#bde2e3" offset=".84375"/>
   <stop stop-color="#bde2e4" offset=".84766"/>
   <stop stop-color="#bce2e5" offset=".85156"/>
   <stop stop-color="#bbe1e6" offset=".85547"/>
   <stop stop-color="#bae1e8" offset=".85938"/>
   <stop stop-color="#b9e1e9" offset=".86328"/>
   <stop stop-color="#b9e1eb" offset=".86719"/>
   <stop stop-color="#b8e1ec" offset=".87109"/>
   <stop stop-color="#b7e1ee" offset=".875"/>
   <stop stop-color="#b6e1ee" offset=".87891"/>
   <stop stop-color="#b5e1ef" offset=".88281"/>
   <stop stop-color="#b3e0ee" offset=".88672"/>
   <stop stop-color="#b0dfed" offset=".89062"/>
   <stop stop-color="#aedfeb" offset=".89453"/>
   <stop stop-color="#acdee8" offset=".89844"/>
   <stop stop-color="#a8dde5" offset=".90234"/>
   <stop stop-color="#a5dce2" offset=".90625"/>
   <stop stop-color="#a2dbe0" offset=".91016"/>
   <stop stop-color="#9fdade" offset=".91406"/>
   <stop stop-color="#9dd9dc" offset=".91797"/>
   <stop stop-color="#9bd9da" offset=".92188"/>
   <stop stop-color="#98d8d8" offset=".92578"/>
   <stop stop-color="#95d8d6" offset=".92969"/>
   <stop stop-color="#92d7d4" offset=".93359"/>
   <stop stop-color="#90d6d1" offset=".9375"/>
   <stop stop-color="#8dd5cf" offset=".94141"/>
   <stop stop-color="#8bd4cd" offset=".94531"/>
   <stop stop-color="#88d3cb" offset=".94922"/>
   <stop stop-color="#86d3c9" offset=".95312"/>
   <stop stop-color="#83d2c6" offset=".95703"/>
   <stop stop-color="#80d1c4" offset=".96094"/>
   <stop stop-color="#7ecfc2" offset=".96484"/>
   <stop stop-color="#7ccec0" offset=".96875"/>
   <stop stop-color="#7acebf" offset=".97266"/>
   <stop stop-color="#77cdbd" offset=".97656"/>
   <stop stop-color="#75ccbb" offset=".98047"/>
   <stop stop-color="#73cbb9" offset=".98438"/>
   <stop stop-color="#71cbb7" offset=".98828"/>
   <stop stop-color="#6fcab5" offset=".99219"/>
   <stop stop-color="#6dcab4" offset=".99609"/>
   <stop stop-color="#6bc9b2" offset="1"/>
  </linearGradient>
  <clipPath id="clip3">
   <path d="m487 43h263v101h-263z"/>
  </clipPath>
  <clipPath id="clip4">
   <path d="m667.15 144c-6.543 0-14.285-1.0547-23.383-3.7852 0 0-4.0312 0.69922-9.3945 0.69922-8.375 0-20-1.7109-24.562-10.484-5.0547-9.7227 9.0781-11.297 18.773-11.297 4.3594 0 7.8203 0.32031 8.2344 0.35938-1.293-0.26563-35.039-7.168-33.914-20.715 0 0-17.062 9.9922-38.336 9.9961-11.418 0-24.043-2.8789-35.902-11.723 0 0-4.8086 0.42578-11.594 0.42578-5.8281 0-13.113-0.3125-20.062-1.4766-13.953-2.3438-11.531-22.648 1.5312-22.648 0.58984 0 1.1992 0.042969 1.832 0.12891 4.7031 0.63672 10.098 2.3711 16.207 5.7305 0 0 5.875-6.9453 14.543-11.699 4.5078-2.4727 9.7734-4.3555 15.352-4.3555 5.9609 0 12.285 2.1445 18.449 7.9961 0 0 0.36719-1.3398 1.1758-3.4219 2.7812-7.2109 10.777-23.301 26.723-23.301 5.5547 0 12.07 1.9492 19.664 6.9062 1.1953 0.77344 2.4141 1.6289 3.6562 2.5547 0 0 7.4336-10.578 16.453-10.578 3.7812 0 7.8398 1.8555 11.746 7.125 0 0 13.965 5.9219 13.953 16.316 0.011719-10.395-13.953-16.316-13.953-16.316-3.9062-5.2695-7.9648-7.125-11.746-7.125-9.0195 0-16.453 10.578-16.453 10.578-1.2422-0.92578-2.4609-1.7812-3.6562-2.5547-1.9531 5.0391-2.8242 11.871 1.9297 18.598 3.4805 4.9297 8.1055 6.4609 12.52 6.4609 1.7109 0 3.3867-0.23047 4.9531-0.58203 0.48438-0.10938 0.96484-0.16016 1.4375-0.16016 3.5117 0 6.5352 2.8711 6.6016 6.5586 0.10938 6.2578 1.8008 13.484 8.6328 15.348 1.1992 0.32812 2.3516 0.47656 3.4531 0.47656 2.9688 0 5.5781-1.0781 7.793-2.6211 1.1875-0.83203 2.5625-1.2422 3.9258-1.2422 1.7773 0 3.5312 0.69922 4.8164 2.0938 0.87109 0.94922 2.1055 1.7891 3.8047 2.4453 1.9961 0.76562 3.6992 1.0742 5.1484 1.0742 1.2383 0 2.2891-0.22266 3.1758-0.57812 0.76562-0.30078 1.5586-0.44922 2.3398-0.44922 1.9922 0 3.918 0.94922 5.1641 2.6367 1.625 2.207 3.9258 4.1211 7.0117 4.1211 0.66406 0 1.3594-0.089844 2.0938-0.28125 3.2305-0.83984 5.6875-2.5547 7.5078-4.3945 1.332-1.3438 3.0742-2.0156 4.8125-2.0156 1.8281 0 3.6445 0.74609 4.9609 2.2383 6.4531 7.3125 18.266 17.77 33.094 17.77 0.77344 0 1.5547-0.03125 2.3398-0.089843v20.531c-5.0547 1.2148-11.105 2.1523-17.73 2.1523-10.566 0.003907-22.598-2.3867-34.406-9.8438 0 0-8.2812 12.418-30.715 12.418m-120.68-80.844c-5.5781 0-10.844 1.8828-15.352 4.3555 5.2852 0.28516 12.691 1.8281 15.207 7.9336 0.42969 1.0352 1.375 1.75 2.4883 1.8203 3.0742 0.17969 9.1641 1.043 13.379 4.9219 0.58203 0.53516 1.2773 0.77734 1.9609 0.77734 1.4961 0 2.9219-1.1602 2.9336-2.8945 0.019531-3.7969-0.20312-8.1875-0.99219-12.34-0.80859 2.082-1.1758 3.4219-1.1758 3.4219-6.1641-5.8516-12.488-7.9961-18.449-7.9961"/>
  </clipPath>
  <clipPath id="clip5">
   <path d="m667.15 144c-6.543 0-14.285-1.0547-23.383-3.7852 0 0-4.0312 0.69922-9.3945 0.69922-8.375 0-20-1.7109-24.562-10.484-5.0547-9.7227 9.0781-11.297 18.773-11.297 4.3594 0 7.8203 0.32031 8.2344 0.35938-1.293-0.26563-35.039-7.168-33.914-20.715 0 0-17.062 9.9922-38.336 9.9961-11.418 0-24.043-2.8789-35.902-11.723 0 0-4.8086 0.42578-11.594 0.42578-5.8281 0-13.113-0.3125-20.062-1.4766-13.953-2.3438-11.531-22.648 1.5312-22.648 0.58984 0 1.1992 0.042969 1.832 0.12891 4.7031 0.63672 10.098 2.3711 16.207 5.7305 0 0 5.875-6.9453 14.543-11.699 4.5078-2.4727 9.7734-4.3555 15.352-4.3555 5.9609 0 12.285 2.1445 18.449 7.9961 0 0 0.36719-1.3398 1.1758-3.4219 2.7812-7.2109 10.777-23.301 26.723-23.301 5.5547 0 12.07 1.9492 19.664 6.9062 1.1953 0.77344 2.4141 1.6289 3.6562 2.5547 0 0 7.4336-10.578 16.453-10.578 3.7812 0 7.8398 1.8555 11.746 7.125 0 0 13.965 5.9219 13.953 16.316 0.011719-10.395-13.953-16.316-13.953-16.316-3.9062-5.2695-7.9648-7.125-11.746-7.125-9.0195 0-16.453 10.578-16.453 10.578-1.2422-0.92578-2.4609-1.7812-3.6562-2.5547-1.9531 5.0391-2.8242 11.871 1.9297 18.598 3.4805 4.9297 8.1055 6.4609 12.52 6.4609 1.7109 0 3.3867-0.23047 4.9531-0.58203 0.48438-0.10938 0.96484-0.16016 1.4375-0.16016 3.5117 0 6.5352 2.8711 6.6016 6.5586 0.10938 6.2578 1.8008 13.484 8.6328 15.348 1.1992 0.32812 2.3516 0.47656 3.4531 0.47656 2.9688 0 5.5781-1.0781 7.793-2.6211 1.1875-0.83203 2.5625-1.2422 3.9258-1.2422 1.7773 0 3.5312 0.69922 4.8164 2.0938 0.87109 0.94922 2.1055 1.7891 3.8047 2.4453 1.9961 0.76562 3.6992 1.0742 5.1484 1.0742 1.2383 0 2.2891-0.22266 3.1758-0.57812 0.76562-0.30078 1.5586-0.44922 2.3398-0.44922 1.9922 0 3.918 0.94922 5.1641 2.6367 1.625 2.207 3.9258 4.1211 7.0117 4.1211 0.66406 0 1.3594-0.089844 2.0938-0.28125 3.2305-0.83984 5.6875-2.5547 7.5078-4.3945 1.332-1.3438 3.0742-2.0156 4.8125-2.0156 1.8281 0 3.6445 0.74609 4.9609 2.2383 6.4531 7.3125 18.266 17.77 33.094 17.77 0.77344 0 1.5547-0.03125 2.3398-0.089843v20.531c-5.0547 1.2148-11.105 2.1523-17.73 2.1523-10.566 0.003907-22.598-2.3867-34.406-9.8438 0 0-8.2812 12.418-30.715 12.418m-120.68-80.844c-5.5781 0-10.844 1.8828-15.352 4.3555 5.2852 0.28516 12.691 1.8281 15.207 7.9336 0.42969 1.0352 1.375 1.75 2.4883 1.8203 3.0742 0.17969 9.1641 1.043 13.379 4.9219 0.58203 0.53516 1.2773 0.77734 1.9609 0.77734 1.4961 0 2.9219-1.1602 2.9336-2.8945 0.019531-3.7969-0.20312-8.1875-0.99219-12.34-0.80859 2.082-1.1758 3.4219-1.1758 3.4219-6.1641-5.8516-12.488-7.9961-18.449-7.9961"/>
  </clipPath>
  <linearGradient id="linear1" x1=".20491" x2=".66785" gradientTransform="matrix(0 -217.49 217.49 0 375 188.57)" gradientUnits="userSpaceOnUse">
   <stop stop-color="#dcf1df" offset="0"/>
   <stop stop-color="#dcf1df" offset=".015625"/>
   <stop stop-color="#dcf1e0" offset=".03125"/>
   <stop stop-color="#dbf1e0" offset=".046875"/>
   <stop stop-color="#dbf1e1" offset=".0625"/>
   <stop stop-color="#daf1e1" offset=".09375"/>
   <stop stop-color="#d9f0e2" offset=".10938"/>
   <stop stop-color="#d9f1e2" offset=".125"/>
   <stop stop-color="#d9f1e3" offset=".15625"/>
   <stop stop-color="#d8f1e4" offset=".17188"/>
   <stop stop-color="#d8f1e4" offset=".1875"/>
   <stop stop-color="#d7f1e4" offset=".20312"/>
   <stop stop-color="#d7f1e5" offset=".21875"/>
   <stop stop-color="#d6f0e6" offset=".25"/>
   <stop stop-color="#d6f0e6" offset=".26562"/>
   <stop stop-color="#d6f0e7" offset=".28125"/>
   <stop stop-color="#d5f0e8" offset=".3125"/>
   <stop stop-color="#d5f0e8" offset=".32812"/>
   <stop stop-color="#d5f0e9" offset=".34375"/>
   <stop stop-color="#d5f0ea" offset=".35938"/>
   <stop stop-color="#d4f0ea" offset=".375"/>
   <stop stop-color="#d4f0eb" offset=".40625"/>
   <stop stop-color="#d3f0eb" offset=".42188"/>
   <stop stop-color="#d2efec" offset=".4375"/>
   <stop stop-color="#d2efec" offset=".45312"/>
   <stop stop-color="#d1efec" offset=".46875"/>
   <stop stop-color="#d1efed" offset=".5"/>
   <stop stop-color="#d1efee" offset=".51562"/>
   <stop stop-color="#d0efee" offset=".53125"/>
   <stop stop-color="#d0efef" offset=".5625"/>
   <stop stop-color="#cfeff0" offset=".57812"/>
   <stop stop-color="#cfeff0" offset=".59375"/>
   <stop stop-color="#ceeef1" offset=".625"/>
   <stop stop-color="#ceeef1" offset=".64062"/>
   <stop stop-color="#cdeef2" offset=".65625"/>
   <stop stop-color="#cdeef2" offset=".6875"/>
   <stop stop-color="#cceef3" offset=".70312"/>
   <stop stop-color="#cceef3" offset=".71875"/>
   <stop stop-color="#cceef4" offset=".73438"/>
   <stop stop-color="#cceef4" offset=".75"/>
   <stop stop-color="#cbeef5" offset=".76562"/>
   <stop stop-color="#cbeef6" offset=".78125"/>
   <stop stop-color="#caedf6" offset=".8125"/>
   <stop stop-color="#c9edf7" offset=".82812"/>
   <stop stop-color="#c9edf7" offset=".84375"/>
   <stop stop-color="#c8edf7" offset=".85938"/>
   <stop stop-color="#c8edf7" offset=".86719"/>
   <stop stop-color="#c8edf7" offset=".875"/>
   <stop stop-color="#c7ecf6" offset=".88281"/>
   <stop stop-color="#c6ecf5" offset=".89062"/>
   <stop stop-color="#c6ecf5" offset=".89844"/>
   <stop stop-color="#c5ecf4" offset=".90234"/>
   <stop stop-color="#c5ecf4" offset=".90625"/>
   <stop stop-color="#c4ebf4" offset=".91016"/>
   <stop stop-color="#c3ebf3" offset=".91406"/>
   <stop stop-color="#c3ebf3" offset=".92188"/>
   <stop stop-color="#c3ebf3" offset=".92969"/>
   <stop stop-color="#c2ebf2" offset=".9375"/>
   <stop stop-color="#c1eaf2" offset=".94531"/>
   <stop stop-color="#c1eaf1" offset=".95312"/>
   <stop stop-color="#c0eaf0" offset=".96094"/>
   <stop stop-color="#c0eaf0" offset=".96875"/>
   <stop stop-color="#bfeaef" offset=".97656"/>
   <stop stop-color="#bfe9ef" offset=".98438"/>
   <stop stop-color="#bee9ee" offset=".99219"/>
   <stop stop-color="#bde9ee" offset="1"/>
  </linearGradient>
  <clipPath id="clip6">
   <path d="m746 0h4v3h-4z"/>
  </clipPath>
  <clipPath id="clip7">
   <path d="m750 2.2383c-1.1133-0.77344-2.2422-1.5195-3.3945-2.2383h3.3945v2.2383"/>
  </clipPath>
  <clipPath id="clip8">
   <path d="m750 2.2383c-1.1133-0.77344-2.2422-1.5195-3.3945-2.2383h3.3945v2.2383"/>
  </clipPath>
  <linearGradient id="linear2" x1=".85671" x2=".86699" gradientTransform="matrix(0 -217.49 217.49 0 375 188.57)" gradientUnits="userSpaceOnUse">
   <stop stop-color="#a3e0d8" offset="0"/>
   <stop stop-color="#a3dfd7" offset=".5"/>
   <stop stop-color="#a2dfd7" offset="1"/>
  </linearGradient>
  <clipPath id="clip9">
   <path d="m531 63h37v20h-37z"/>
  </clipPath>
  <clipPath id="clip10">
   <path d="m564.16 82.965c-0.68359 0-1.3789-0.24219-1.9609-0.77734-4.2148-3.8789-10.305-4.7422-13.379-4.9219-1.1133-0.070313-2.0586-0.78516-2.4883-1.8203-2.5156-6.1055-9.9219-7.6484-15.207-7.9336 4.5078-2.4727 9.7734-4.3555 15.352-4.3555 5.9609 0 12.285 2.1445 18.449 7.9961 0 0 0.36719-1.3398 1.1758-3.4219 0.78906 4.1523 1.0117 8.543 0.99219 12.34-0.011719 1.7344-1.4375 2.8945-2.9336 2.8945"/>
  </clipPath>
  <clipPath id="clip11">
   <path d="m564.16 82.965c-0.68359 0-1.3789-0.24219-1.9609-0.77734-4.2148-3.8789-10.305-4.7422-13.379-4.9219-1.1133-0.070313-2.0586-0.78516-2.4883-1.8203-2.5156-6.1055-9.9219-7.6484-15.207-7.9336 4.5078-2.4727 9.7734-4.3555 15.352-4.3555 5.9609 0 12.285 2.1445 18.449 7.9961 0 0 0.36719-1.3398 1.1758-3.4219 0.78906 4.1523 1.0117 8.543 0.99219 12.34-0.011719 1.7344-1.4375 2.8945-2.9336 2.8945"/>
  </clipPath>
  <linearGradient id="linear3" x1=".48554" x2=".5766" gradientTransform="matrix(0 -217.49 217.49 0 375 188.57)" gradientUnits="userSpaceOnUse">
   <stop stop-color="#e1f2f0" offset="0"/>
   <stop stop-color="#e0f2f0" offset=".0625"/>
   <stop stop-color="#e0f2f1" offset=".125"/>
   <stop stop-color="#e0f1f1" offset=".1875"/>
   <stop stop-color="#e0f1f2" offset=".25"/>
   <stop stop-color="#dff1f2" offset=".375"/>
   <stop stop-color="#dff1f2" offset=".5"/>
   <stop stop-color="#def1f3" offset=".625"/>
   <stop stop-color="#def1f4" offset=".6875"/>
   <stop stop-color="#ddf1f4" offset=".75"/>
   <stop stop-color="#ddf1f5" offset=".8125"/>
   <stop stop-color="#ddf1f5" offset=".875"/>
   <stop stop-color="#ddf1f5" offset=".9375"/>
   <stop stop-color="#dcf1f6" offset="1"/>
  </linearGradient>
  <clipPath id="clip12">
   <path d="m610 0h140v119h-140z"/>
  </clipPath>
  <clipPath id="clip13">
   <path d="m747.66 118.83c-14.828 0-26.641-10.457-33.094-17.77-1.3164-1.4922-3.1328-2.2383-4.9609-2.2383-1.7383 0-3.4805 0.67188-4.8125 2.0156-1.8203 1.8398-4.2773 3.5547-7.5078 4.3945-0.73438 0.19141-1.4297 0.28125-2.0938 0.28125-3.0859 0-5.3867-1.9141-7.0117-4.1211-1.2461-1.6875-3.1719-2.6367-5.1641-2.6367-0.78125 0-1.5742 0.14844-2.3398 0.44922-0.88672 0.35547-1.9375 0.57812-3.1758 0.57812-1.4492 0-3.1523-0.30859-5.1484-1.0742-1.6992-0.65625-2.9336-1.4961-3.8047-2.4453-1.2852-1.3945-3.0391-2.0938-4.8164-2.0938-1.3633 0-2.7383 0.41016-3.9258 1.2422-2.2148 1.543-4.8242 2.6211-7.793 2.6211-1.1016 0-2.2539-0.14844-3.4531-0.47656-6.832-1.8633-8.5234-9.0898-8.6328-15.348-0.066406-3.6875-3.0898-6.5586-6.6016-6.5586-0.47266 0-0.95312 0.050781-1.4375 0.16016-1.5664 0.35156-3.2422 0.58203-4.9531 0.58203-4.4141 0-9.0391-1.5312-12.52-6.4609-4.7539-6.7266-3.8828-13.559-1.9297-18.598 1.1953 0.77344 2.4141 1.6289 3.6562 2.5547 0 0 7.4336-10.578 16.453-10.578 3.7812 0 7.8398 1.8555 11.746 7.125 0 0 13.965 5.9219 13.953 16.316 0 1.7305-0.39062 3.582-1.2891 5.5508 0 0 4.3672-0.96875 10.227-0.96875 9.7617 0 23.656 2.6953 28.328 17.082 0 0 8.5859-8.1523 15.746-8.1523 0.82812 0 1.6328 0.10547 2.4062 0.34766-5.0078-1.9922-30.746-13.535-30.742-39.789 0-2.0742 0.16016-4.2422 0.50781-6.5039 0 0 0.39063-27.836 22.535-34.32h40.594c1.1523 0.71875 2.2812 1.4648 3.3945 2.2383v116.5c-0.78516 0.058593-1.5664 0.089843-2.3398 0.089843"/>
  </clipPath>
  <clipPath id="clip14">
   <path d="m747.66 118.83c-14.828 0-26.641-10.457-33.094-17.77-1.3164-1.4922-3.1328-2.2383-4.9609-2.2383-1.7383 0-3.4805 0.67188-4.8125 2.0156-1.8203 1.8398-4.2773 3.5547-7.5078 4.3945-0.73438 0.19141-1.4297 0.28125-2.0938 0.28125-3.0859 0-5.3867-1.9141-7.0117-4.1211-1.2461-1.6875-3.1719-2.6367-5.1641-2.6367-0.78125 0-1.5742 0.14844-2.3398 0.44922-0.88672 0.35547-1.9375 0.57812-3.1758 0.57812-1.4492 0-3.1523-0.30859-5.1484-1.0742-1.6992-0.65625-2.9336-1.4961-3.8047-2.4453-1.2852-1.3945-3.0391-2.0938-4.8164-2.0938-1.3633 0-2.7383 0.41016-3.9258 1.2422-2.2148 1.543-4.8242 2.6211-7.793 2.6211-1.1016 0-2.2539-0.14844-3.4531-0.47656-6.832-1.8633-8.5234-9.0898-8.6328-15.348-0.066406-3.6875-3.0898-6.5586-6.6016-6.5586-0.47266 0-0.95312 0.050781-1.4375 0.16016-1.5664 0.35156-3.2422 0.58203-4.9531 0.58203-4.4141 0-9.0391-1.5312-12.52-6.4609-4.7539-6.7266-3.8828-13.559-1.9297-18.598 1.1953 0.77344 2.4141 1.6289 3.6562 2.5547 0 0 7.4336-10.578 16.453-10.578 3.7812 0 7.8398 1.8555 11.746 7.125 0 0 13.965 5.9219 13.953 16.316 0 1.7305-0.39062 3.582-1.2891 5.5508 0 0 4.3672-0.96875 10.227-0.96875 9.7617 0 23.656 2.6953 28.328 17.082 0 0 8.5859-8.1523 15.746-8.1523 0.82812 0 1.6328 0.10547 2.4062 0.34766-5.0078-1.9922-30.746-13.535-30.742-39.789 0-2.0742 0.16016-4.2422 0.50781-6.5039 0 0 0.39063-27.836 22.535-34.32h40.594c1.1523 0.71875 2.2812 1.4648 3.3945 2.2383v116.5c-0.78516 0.058593-1.5664 0.089843-2.3398 0.089843"/>
  </clipPath>
  <linearGradient id="linear4" x1=".32063" x2=".86699" gradientTransform="matrix(0 -217.49 217.49 0 375 188.57)" gradientUnits="userSpaceOnUse">
   <stop stop-color="#ebf3e5" offset="0"/>
   <stop stop-color="#eaf3e5" offset=".015625"/>
   <stop stop-color="#eaf3e6" offset=".03125"/>
   <stop stop-color="#e9f3e6" offset=".046875"/>
   <stop stop-color="#e9f3e7" offset=".0625"/>
   <stop stop-color="#e8f2e8" offset=".09375"/>
   <stop stop-color="#e7f2e9" offset=".10938"/>
   <stop stop-color="#e6f2e9" offset=".125"/>
   <stop stop-color="#e6f2e9" offset=".14062"/>
   <stop stop-color="#e5f2ea" offset=".15625"/>
   <stop stop-color="#e5f2ea" offset=".17188"/>
   <stop stop-color="#e4f2eb" offset=".1875"/>
   <stop stop-color="#e4f1eb" offset=".21875"/>
   <stop stop-color="#e3f1ec" offset=".23438"/>
   <stop stop-color="#e2f1ed" offset=".25"/>
   <stop stop-color="#e2f1ee" offset=".28125"/>
   <stop stop-color="#e1f2ef" offset=".29688"/>
   <stop stop-color="#e1f2f0" offset=".3125"/>
   <stop stop-color="#e0f1f1" offset=".32812"/>
   <stop stop-color="#e0f1f1" offset=".34375"/>
   <stop stop-color="#dff1f2" offset=".375"/>
   <stop stop-color="#def1f3" offset=".40625"/>
   <stop stop-color="#def1f4" offset=".42188"/>
   <stop stop-color="#ddf1f5" offset=".4375"/>
   <stop stop-color="#ddf1f5" offset=".45312"/>
   <stop stop-color="#ddf1f6" offset=".46875"/>
   <stop stop-color="#dcf0f6" offset=".5"/>
   <stop stop-color="#dbf1f7" offset=".51562"/>
   <stop stop-color="#daf1f7" offset=".52344"/>
   <stop stop-color="#d9f1f7" offset=".53125"/>
   <stop stop-color="#d9f0f6" offset=".53906"/>
   <stop stop-color="#d8f0f6" offset=".54688"/>
   <stop stop-color="#d7f0f5" offset=".55469"/>
   <stop stop-color="#d7f0f5" offset=".55859"/>
   <stop stop-color="#d6f0f4" offset=".5625"/>
   <stop stop-color="#d6f0f4" offset=".57031"/>
   <stop stop-color="#d5f0f3" offset=".57812"/>
   <stop stop-color="#d5f0f3" offset=".59375"/>
   <stop stop-color="#d4f0f2" offset=".60156"/>
   <stop stop-color="#d4eff1" offset=".60938"/>
   <stop stop-color="#d3eff1" offset=".61328"/>
   <stop stop-color="#d2eff1" offset=".61719"/>
   <stop stop-color="#d2eff0" offset=".625"/>
   <stop stop-color="#d1eff0" offset=".63281"/>
   <stop stop-color="#d1efef" offset=".64062"/>
   <stop stop-color="#d0efef" offset=".64844"/>
   <stop stop-color="#d0efee" offset=".65625"/>
   <stop stop-color="#cfefee" offset=".66406"/>
   <stop stop-color="#ceeeed" offset=".67188"/>
   <stop stop-color="#ceeeed" offset=".67969"/>
   <stop stop-color="#cdeeec" offset=".6875"/>
   <stop stop-color="#cceeeb" offset=".69531"/>
   <stop stop-color="#ccedeb" offset=".70312"/>
   <stop stop-color="#cbedea" offset=".71094"/>
   <stop stop-color="#caede9" offset=".71484"/>
   <stop stop-color="#c9ede9" offset=".71875"/>
   <stop stop-color="#c9ece9" offset=".72266"/>
   <stop stop-color="#c8ece8" offset=".72656"/>
   <stop stop-color="#c8ece8" offset=".73438"/>
   <stop stop-color="#c7ece8" offset=".74219"/>
   <stop stop-color="#c7ece7" offset=".75"/>
   <stop stop-color="#c6ebe6" offset=".75781"/>
   <stop stop-color="#c5ebe6" offset=".76172"/>
   <stop stop-color="#c4ebe5" offset=".76562"/>
   <stop stop-color="#c4ebe5" offset=".76953"/>
   <stop stop-color="#c3eae5" offset=".77344"/>
   <stop stop-color="#c3eae4" offset=".78125"/>
   <stop stop-color="#c2eae4" offset=".78906"/>
   <stop stop-color="#c2eae3" offset=".79688"/>
   <stop stop-color="#c1eae2" offset=".80469"/>
   <stop stop-color="#c1eae2" offset=".8125"/>
   <stop stop-color="#c0e9e1" offset=".82031"/>
   <stop stop-color="#c0e9e1" offset=".82812"/>
   <stop stop-color="#bfe9e1" offset=".83594"/>
   <stop stop-color="#bee9e0" offset=".84375"/>
   <stop stop-color="#bee8e0" offset=".85156"/>
   <stop stop-color="#bde8df" offset=".85938"/>
   <stop stop-color="#bce8de" offset=".86719"/>
   <stop stop-color="#bce8de" offset=".875"/>
   <stop stop-color="#bbe7dd" offset=".88281"/>
   <stop stop-color="#bae7dd" offset=".89062"/>
   <stop stop-color="#bae7dd" offset=".89844"/>
   <stop stop-color="#b9e7dc" offset=".90625"/>
   <stop stop-color="#b9e7db" offset=".91406"/>
   <stop stop-color="#b8e6db" offset=".92188"/>
   <stop stop-color="#b8e6da" offset=".92969"/>
   <stop stop-color="#b7e6da" offset=".9375"/>
   <stop stop-color="#b7e6d9" offset=".94531"/>
   <stop stop-color="#b6e6d8" offset=".95312"/>
   <stop stop-color="#b5e5d8" offset=".96094"/>
   <stop stop-color="#b5e5d8" offset=".96875"/>
   <stop stop-color="#b4e5d8" offset=".97656"/>
   <stop stop-color="#b3e5d7" offset=".98438"/>
   <stop stop-color="#b3e4d6" offset=".99219"/>
   <stop stop-color="#b2e4d6" offset="1"/>
  </linearGradient>
  <clipPath id="clip15">
   <path d="m0 0h213v139h-213z"/>
  </clipPath>
  <clipPath id="clip16">
   <path d="m141.48 139c-9.8672 0-21.754-3.3672-35.262-13.406 0 0-9.332 7.543-23.711 7.543-9.6523 0-21.578-3.3984-34.488-14.75 0 0-5.1328 2.8867-12.59 4.7773-3.3086-25.484-24.324-30.191-35.43-30.875v-2.3438c5.8516-3.2148 13.219-10.633 12.543-27.543-0.37891-9.4922-5.707-15.281-12.543-18.785v-43.617h28.094c8.2969 8.9023 17.402 15.852 25.531 15.852 3.1094 0 6.0781-1.0195 8.8047-3.3359 4.5664-3.8828 7.4414-8.1641 9.125-12.516h54.48c-1.2031 3.4414-3.3945 6.8398-6.9531 10.016-5.0703 4.5195-11.527 7.1836-18.293 7.832-10.316 0.98438-30.473 4.8047-31.707 19.613 0 0 0.10547 0.011718 0.30469 0.039062 2.5078 0.34375 19.656 3.4258 19.645 23.805 0.011719-20.379-17.137-23.461-19.645-23.805-10.004 11.398-29.773 38.09-17.488 59.27 4.7852 8.25 11.285 11.145 18.059 11.145 9.7461 0 20.059-5.9961 26.621-10.676 1.1211-0.80078 2.4023-1.1797 3.668-1.1797 2.3477 0 4.6328 1.3008 5.6953 3.625 3.2344 7.0625 10.402 16.305 25.773 16.305 1.7383 0 3.5859-0.12109 5.543-0.375 0 0 3.25-1.0234 6.0469-4.2148 1.2656-1.4492 3.0039-2.168 4.7422-2.168 1.793 0 3.5859 0.75781 4.875 2.2617 2.7578 3.2148 6.7852 5.7852 12.605 5.7852 9.1172 0 13.648-8.9961 15.828-16.414-6.1875 0.55859-10.84 1.4492-10.84 1.4492-0.69531-18.793-16.254-22.293-27.734-22.293-6.8008 0-12.176 1.2305-12.176 1.2305-6.0195-12.902-17.082-16.016-26.359-16.016-8.6602 0-15.766 2.7109-15.766 2.7109s7.1055-2.7109 15.766-2.7109c9.2773 0 20.34 3.1133 26.359 16.016 0 0 5.375-1.2305 12.176-1.2305 11.48 0 27.039 3.5 27.734 22.293 0 0 4.6523-0.89062 10.84-1.4492 2.7773-0.24609 5.8633-0.42578 8.9805-0.42578 10.43 0 21.191 2.0078 21.754 10.191 0.91797 13.316-26.324 14.457-35.691 14.457-1.9375 0-3.1094-0.046876-3.1094-0.046876s-11.719 13.961-31.809 13.961"/>
  </clipPath>
  <clipPath id="clip17">
   <path d="m141.48 139c-9.8672 0-21.754-3.3672-35.262-13.406 0 0-9.332 7.543-23.711 7.543-9.6523 0-21.578-3.3984-34.488-14.75 0 0-5.1328 2.8867-12.59 4.7773-3.3086-25.484-24.324-30.191-35.43-30.875v-2.3438c5.8516-3.2148 13.219-10.633 12.543-27.543-0.37891-9.4922-5.707-15.281-12.543-18.785v-43.617h28.094c8.2969 8.9023 17.402 15.852 25.531 15.852 3.1094 0 6.0781-1.0195 8.8047-3.3359 4.5664-3.8828 7.4414-8.1641 9.125-12.516h54.48c-1.2031 3.4414-3.3945 6.8398-6.9531 10.016-5.0703 4.5195-11.527 7.1836-18.293 7.832-10.316 0.98438-30.473 4.8047-31.707 19.613 0 0 0.10547 0.011718 0.30469 0.039062 2.5078 0.34375 19.656 3.4258 19.645 23.805 0.011719-20.379-17.137-23.461-19.645-23.805-10.004 11.398-29.773 38.09-17.488 59.27 4.7852 8.25 11.285 11.145 18.059 11.145 9.7461 0 20.059-5.9961 26.621-10.676 1.1211-0.80078 2.4023-1.1797 3.668-1.1797 2.3477 0 4.6328 1.3008 5.6953 3.625 3.2344 7.0625 10.402 16.305 25.773 16.305 1.7383 0 3.5859-0.12109 5.543-0.375 0 0 3.25-1.0234 6.0469-4.2148 1.2656-1.4492 3.0039-2.168 4.7422-2.168 1.793 0 3.5859 0.75781 4.875 2.2617 2.7578 3.2148 6.7852 5.7852 12.605 5.7852 9.1172 0 13.648-8.9961 15.828-16.414-6.1875 0.55859-10.84 1.4492-10.84 1.4492-0.69531-18.793-16.254-22.293-27.734-22.293-6.8008 0-12.176 1.2305-12.176 1.2305-6.0195-12.902-17.082-16.016-26.359-16.016-8.6602 0-15.766 2.7109-15.766 2.7109s7.1055-2.7109 15.766-2.7109c9.2773 0 20.34 3.1133 26.359 16.016 0 0 5.375-1.2305 12.176-1.2305 11.48 0 27.039 3.5 27.734 22.293 0 0 4.6523-0.89062 10.84-1.4492 2.7773-0.24609 5.8633-0.42578 8.9805-0.42578 10.43 0 21.191 2.0078 21.754 10.191 0.91797 13.316-26.324 14.457-35.691 14.457-1.9375 0-3.1094-0.046876-3.1094-0.046876s-11.719 13.961-31.809 13.961"/>
  </clipPath>
  <linearGradient id="linear5" x1=".2279" x2=".86699" gradientTransform="matrix(0 -217.49 217.49 0 375 188.57)" gradientUnits="userSpaceOnUse">
   <stop stop-color="#dbf1e0" offset="0"/>
   <stop stop-color="#dbf1e1" offset=".015625"/>
   <stop stop-color="#daf1e1" offset=".03125"/>
   <stop stop-color="#daf0e2" offset=".046875"/>
   <stop stop-color="#d9f1e2" offset=".054688"/>
   <stop stop-color="#d9f1e3" offset=".0625"/>
   <stop stop-color="#d8f1e3" offset=".078125"/>
   <stop stop-color="#d8f1e4" offset=".09375"/>
   <stop stop-color="#d8f1e4" offset=".10156"/>
   <stop stop-color="#d7f1e4" offset=".10938"/>
   <stop stop-color="#d7f1e5" offset=".11719"/>
   <stop stop-color="#d7f1e5" offset=".125"/>
   <stop stop-color="#d6f0e6" offset=".14062"/>
   <stop stop-color="#d6f0e6" offset=".15625"/>
   <stop stop-color="#d6f0e7" offset=".17188"/>
   <stop stop-color="#d5f0e7" offset=".1875"/>
   <stop stop-color="#d5f0e8" offset=".19531"/>
   <stop stop-color="#d5f0e8" offset=".20312"/>
   <stop stop-color="#d5f0e9" offset=".21094"/>
   <stop stop-color="#d5f0e9" offset=".21875"/>
   <stop stop-color="#d5f0ea" offset=".22656"/>
   <stop stop-color="#d4f0ea" offset=".23438"/>
   <stop stop-color="#d4f0eb" offset=".25"/>
   <stop stop-color="#d3f0eb" offset=".26562"/>
   <stop stop-color="#d3f0ec" offset=".27344"/>
   <stop stop-color="#d2efec" offset=".28125"/>
   <stop stop-color="#d2efec" offset=".29688"/>
   <stop stop-color="#d1efed" offset=".30469"/>
   <stop stop-color="#d1efed" offset=".3125"/>
   <stop stop-color="#d1efee" offset=".32812"/>
   <stop stop-color="#d1efee" offset=".34375"/>
   <stop stop-color="#d0efef" offset=".35156"/>
   <stop stop-color="#d0efef" offset=".35938"/>
   <stop stop-color="#d0efef" offset=".375"/>
   <stop stop-color="#cfeff0" offset=".39062"/>
   <stop stop-color="#cfeff1" offset=".39844"/>
   <stop stop-color="#cfeff1" offset=".40625"/>
   <stop stop-color="#ceeef1" offset=".41406"/>
   <stop stop-color="#ceeef1" offset=".42188"/>
   <stop stop-color="#cdeef2" offset=".4375"/>
   <stop stop-color="#cdeef2" offset=".45312"/>
   <stop stop-color="#cceef3" offset=".46875"/>
   <stop stop-color="#cceef3" offset=".48438"/>
   <stop stop-color="#cceef3" offset=".49219"/>
   <stop stop-color="#cceef4" offset=".5"/>
   <stop stop-color="#cceef4" offset=".50781"/>
   <stop stop-color="#cbeef5" offset=".51562"/>
   <stop stop-color="#cbeef5" offset=".52344"/>
   <stop stop-color="#cbeef6" offset=".53125"/>
   <stop stop-color="#caedf6" offset=".54688"/>
   <stop stop-color="#caedf7" offset=".55469"/>
   <stop stop-color="#c9edf7" offset=".5625"/>
   <stop stop-color="#c9edf7" offset=".57812"/>
   <stop stop-color="#c8edf7" offset=".59375"/>
   <stop stop-color="#c7edf6" offset=".60156"/>
   <stop stop-color="#c7ecf6" offset=".60938"/>
   <stop stop-color="#c6ecf5" offset=".61719"/>
   <stop stop-color="#c4ebf4" offset=".62109"/>
   <stop stop-color="#c4ebf4" offset=".625"/>
   <stop stop-color="#c3ebf3" offset=".63281"/>
   <stop stop-color="#c2ebf2" offset=".64062"/>
   <stop stop-color="#c2eaf2" offset=".64844"/>
   <stop stop-color="#c1eaf1" offset=".65625"/>
   <stop stop-color="#c0eaf0" offset=".66406"/>
   <stop stop-color="#bfeaef" offset=".67188"/>
   <stop stop-color="#bee9ef" offset=".67969"/>
   <stop stop-color="#bee9ee" offset=".6875"/>
   <stop stop-color="#bde9ee" offset=".69531"/>
   <stop stop-color="#bce8ed" offset=".70312"/>
   <stop stop-color="#bbe8ed" offset=".71094"/>
   <stop stop-color="#bae8ec" offset=".71875"/>
   <stop stop-color="#bae8eb" offset=".72656"/>
   <stop stop-color="#b9e8ea" offset=".73438"/>
   <stop stop-color="#b9e7ea" offset=".74219"/>
   <stop stop-color="#b8e7e9" offset=".75"/>
   <stop stop-color="#b8e7e9" offset=".75781"/>
   <stop stop-color="#b7e7e8" offset=".76562"/>
   <stop stop-color="#b6e6e8" offset=".77344"/>
   <stop stop-color="#b6e6e7" offset=".78125"/>
   <stop stop-color="#b5e6e6" offset=".78906"/>
   <stop stop-color="#b5e6e5" offset=".79688"/>
   <stop stop-color="#b4e5e5" offset=".80469"/>
   <stop stop-color="#b3e5e4" offset=".8125"/>
   <stop stop-color="#b2e5e3" offset=".82031"/>
   <stop stop-color="#b1e5e3" offset=".82812"/>
   <stop stop-color="#b1e4e2" offset=".83594"/>
   <stop stop-color="#b0e4e2" offset=".84375"/>
   <stop stop-color="#b0e4e1" offset=".85156"/>
   <stop stop-color="#afe4e1" offset=".85938"/>
   <stop stop-color="#aee3e0" offset=".86719"/>
   <stop stop-color="#aee3df" offset=".875"/>
   <stop stop-color="#ade3de" offset=".88281"/>
   <stop stop-color="#ace3de" offset=".89062"/>
   <stop stop-color="#abe2dd" offset=".89844"/>
   <stop stop-color="#abe2dd" offset=".90625"/>
   <stop stop-color="#aae2dd" offset=".91406"/>
   <stop stop-color="#aae2dc" offset=".92188"/>
   <stop stop-color="#a9e2dc" offset=".92969"/>
   <stop stop-color="#a8e1db" offset=".9375"/>
   <stop stop-color="#a8e1db" offset=".94531"/>
   <stop stop-color="#a7e1da" offset=".95312"/>
   <stop stop-color="#a6e0d9" offset=".96094"/>
   <stop stop-color="#a5e0d9" offset=".96875"/>
   <stop stop-color="#a4e0d9" offset=".97656"/>
   <stop stop-color="#a4e0d8" offset=".98438"/>
   <stop stop-color="#a3dfd7" offset=".99219"/>
   <stop stop-color="#a2dfd7" offset="1"/>
  </linearGradient>
  <clipPath id="clip18">
   <path d="m47 37h135v81h-135z"/>
  </clipPath>
  <clipPath id="clip19">
   <path d="m165.53 117.28c-5.8203 0-9.8477-2.5703-12.605-5.7852-1.2891-1.5039-3.082-2.2617-4.875-2.2617-1.7383 0-3.4766 0.71875-4.7422 2.168-2.7969 3.1914-6.0469 4.2148-6.0469 4.2148-1.957 0.25391-3.8047 0.375-5.543 0.375-15.371 0-22.539-9.2422-25.773-16.305-1.0625-2.3242-3.3477-3.625-5.6953-3.625-1.2656 0-2.5469 0.37891-3.668 1.1797-6.5625 4.6797-16.875 10.676-26.621 10.676-6.7734 0-13.273-2.8945-18.059-11.145-12.285-21.18 7.4844-47.871 17.488-59.27 2.5078 0.34375 19.656 3.4258 19.645 23.805 0 2.0391-0.17578 4.2461-0.55078 6.6406 0 0 7.1055-2.7109 15.766-2.7109 9.2773 0 20.34 3.1133 26.359 16.016 0 0 5.375-1.2305 12.176-1.2305 11.48 0 27.039 3.5 27.734 22.293 0 0 4.6523-0.89062 10.84-1.4492-2.1797 7.418-6.7109 16.414-15.828 16.414"/>
  </clipPath>
  <clipPath id="clip20">
   <path d="m165.53 117.28c-5.8203 0-9.8477-2.5703-12.605-5.7852-1.2891-1.5039-3.082-2.2617-4.875-2.2617-1.7383 0-3.4766 0.71875-4.7422 2.168-2.7969 3.1914-6.0469 4.2148-6.0469 4.2148-1.957 0.25391-3.8047 0.375-5.543 0.375-15.371 0-22.539-9.2422-25.773-16.305-1.0625-2.3242-3.3477-3.625-5.6953-3.625-1.2656 0-2.5469 0.37891-3.668 1.1797-6.5625 4.6797-16.875 10.676-26.621 10.676-6.7734 0-13.273-2.8945-18.059-11.145-12.285-21.18 7.4844-47.871 17.488-59.27 2.5078 0.34375 19.656 3.4258 19.645 23.805 0 2.0391-0.17578 4.2461-0.55078 6.6406 0 0 7.1055-2.7109 15.766-2.7109 9.2773 0 20.34 3.1133 26.359 16.016 0 0 5.375-1.2305 12.176-1.2305 11.48 0 27.039 3.5 27.734 22.293 0 0 4.6523-0.89062 10.84-1.4492-2.1797 7.418-6.7109 16.414-15.828 16.414"/>
  </clipPath>
  <linearGradient id="linear6" x1=".32777" x2=".69458" gradientTransform="matrix(0 -217.49 217.49 0 375 188.57)" gradientUnits="userSpaceOnUse">
   <stop stop-color="#eaf3e6" offset="0"/>
   <stop stop-color="#eaf3e6" offset=".03125"/>
   <stop stop-color="#e9f3e7" offset=".0625"/>
   <stop stop-color="#e8f3e7" offset=".078125"/>
   <stop stop-color="#e8f2e8" offset=".09375"/>
   <stop stop-color="#e7f2e8" offset=".125"/>
   <stop stop-color="#e7f2e9" offset=".15625"/>
   <stop stop-color="#e6f2e9" offset=".1875"/>
   <stop stop-color="#e6f2ea" offset=".20312"/>
   <stop stop-color="#e5f2ea" offset=".21875"/>
   <stop stop-color="#e4f2ea" offset=".25"/>
   <stop stop-color="#e4f1eb" offset=".26562"/>
   <stop stop-color="#e4f1ec" offset=".28125"/>
   <stop stop-color="#e3f1ec" offset=".3125"/>
   <stop stop-color="#e3f1ec" offset=".32812"/>
   <stop stop-color="#e2f1ed" offset=".34375"/>
   <stop stop-color="#e2f1ed" offset=".375"/>
   <stop stop-color="#e2f1ee" offset=".40625"/>
   <stop stop-color="#e1f2ef" offset=".42188"/>
   <stop stop-color="#e1f2f0" offset=".4375"/>
   <stop stop-color="#e0f1f0" offset=".45312"/>
   <stop stop-color="#e0f1f1" offset=".46875"/>
   <stop stop-color="#e0f1f1" offset=".5"/>
   <stop stop-color="#dff1f2" offset=".53125"/>
   <stop stop-color="#dff1f2" offset=".5625"/>
   <stop stop-color="#def1f3" offset=".57812"/>
   <stop stop-color="#def1f3" offset=".59375"/>
   <stop stop-color="#ddf1f4" offset=".60938"/>
   <stop stop-color="#ddf1f4" offset=".625"/>
   <stop stop-color="#ddf1f5" offset=".65625"/>
   <stop stop-color="#ddf1f5" offset=".67188"/>
   <stop stop-color="#dcf0f6" offset=".6875"/>
   <stop stop-color="#dcf0f6" offset=".71875"/>
   <stop stop-color="#dbf0f7" offset=".73438"/>
   <stop stop-color="#dbf1f7" offset=".75"/>
   <stop stop-color="#daf1f7" offset=".76562"/>
   <stop stop-color="#d9f0f6" offset=".78125"/>
   <stop stop-color="#d8f0f6" offset=".79688"/>
   <stop stop-color="#d7f0f5" offset=".80469"/>
   <stop stop-color="#d7f0f5" offset=".8125"/>
   <stop stop-color="#d7f0f4" offset=".82031"/>
   <stop stop-color="#d6f0f4" offset=".82812"/>
   <stop stop-color="#d5f0f3" offset=".84375"/>
   <stop stop-color="#d5f0f3" offset=".85938"/>
   <stop stop-color="#d4f0f2" offset=".875"/>
   <stop stop-color="#d4eff2" offset=".88281"/>
   <stop stop-color="#d3eff1" offset=".89062"/>
   <stop stop-color="#d3eff1" offset=".89844"/>
   <stop stop-color="#d2eff1" offset=".90625"/>
   <stop stop-color="#d1eff0" offset=".92188"/>
   <stop stop-color="#d1efef" offset=".9375"/>
   <stop stop-color="#d0efef" offset=".95312"/>
   <stop stop-color="#cfefee" offset=".96875"/>
   <stop stop-color="#ceeeed" offset=".98438"/>
   <stop stop-color="#cdeeec" offset="1"/>
  </linearGradient>
  <clipPath id="clip21">
   <path d="m28 0h44v16h-44z"/>
  </clipPath>
  <clipPath id="clip22">
   <path d="m53.625 15.852c-8.1289 0-17.234-6.9492-25.531-15.852h43.461c-1.6836 4.3516-4.5586 8.6328-9.125 12.516-2.7266 2.3164-5.6953 3.3359-8.8047 3.3359"/>
  </clipPath>
  <clipPath id="clip23">
   <path d="m53.625 15.852c-8.1289 0-17.234-6.9492-25.531-15.852h43.461c-1.6836 4.3516-4.5586 8.6328-9.125 12.516-2.7266 2.3164-5.6953 3.3359-8.8047 3.3359"/>
  </clipPath>
  <linearGradient id="linear7" x1=".7941" x2=".86699" gradientTransform="matrix(0 -217.49 217.49 0 375 188.57)" gradientUnits="userSpaceOnUse">
   <stop stop-color="#bce8de" offset="0"/>
   <stop stop-color="#bce8de" offset=".0625"/>
   <stop stop-color="#bbe7dd" offset=".125"/>
   <stop stop-color="#bae7dd" offset=".1875"/>
   <stop stop-color="#bae7dd" offset=".25"/>
   <stop stop-color="#b9e7dc" offset=".3125"/>
   <stop stop-color="#b9e6db" offset=".375"/>
   <stop stop-color="#b8e6db" offset=".4375"/>
   <stop stop-color="#b8e6da" offset=".5"/>
   <stop stop-color="#b7e6d9" offset=".5625"/>
   <stop stop-color="#b6e6d9" offset=".625"/>
   <stop stop-color="#b6e5d8" offset=".6875"/>
   <stop stop-color="#b5e5d8" offset=".75"/>
   <stop stop-color="#b4e5d8" offset=".8125"/>
   <stop stop-color="#b3e5d7" offset=".875"/>
   <stop stop-color="#b3e4d6" offset=".9375"/>
   <stop stop-color="#b2e4d6" offset="1"/>
  </linearGradient>
  <clipPath id="clip24">
   <path d="m0 43h36v82h-36z"/>
  </clipPath>
  <clipPath id="clip25">
   <path d="m23.254 124.77c-7.6406 0-15.961-2.0664-23.254-8.5391v-23.938c11.105 0.68359 32.121 5.3906 35.43 30.875-3.6211 0.91797-7.7852 1.6016-12.176 1.6016m-23.254-34.82v-46.328c6.8359 3.5039 12.164 9.293 12.543 18.785 0.67578 16.91-6.6914 24.328-12.543 27.543"/>
  </clipPath>
  <clipPath id="clip26">
   <path d="m23.254 124.77c-7.6406 0-15.961-2.0664-23.254-8.5391v-23.938c11.105 0.68359 32.121 5.3906 35.43 30.875-3.6211 0.91797-7.7852 1.6016-12.176 1.6016m-23.254-34.82v-46.328c6.8359 3.5039 12.164 9.293 12.543 18.785 0.67578 16.91-6.6914 24.328-12.543 27.543"/>
  </clipPath>
  <linearGradient id="linear8" x1=".29335" x2=".66645" gradientTransform="matrix(0 -217.49 217.49 0 375 188.57)" gradientUnits="userSpaceOnUse">
   <stop stop-color="#ecf3e3" offset="0"/>
   <stop stop-color="#ebf3e3" offset=".015625"/>
   <stop stop-color="#ebf3e4" offset=".03125"/>
   <stop stop-color="#ebf3e4" offset=".0625"/>
   <stop stop-color="#ebf3e5" offset=".078125"/>
   <stop stop-color="#eaf3e5" offset=".09375"/>
   <stop stop-color="#eaf3e6" offset=".125"/>
   <stop stop-color="#e9f3e7" offset=".15625"/>
   <stop stop-color="#e8f3e7" offset=".17188"/>
   <stop stop-color="#e8f2e8" offset=".1875"/>
   <stop stop-color="#e7f2e8" offset=".21875"/>
   <stop stop-color="#e7f2e9" offset=".25"/>
   <stop stop-color="#e6f2e9" offset=".28125"/>
   <stop stop-color="#e5f2ea" offset=".29688"/>
   <stop stop-color="#e5f2ea" offset=".3125"/>
   <stop stop-color="#e4f2ea" offset=".32812"/>
   <stop stop-color="#e4f2eb" offset=".34375"/>
   <stop stop-color="#e4f1eb" offset=".375"/>
   <stop stop-color="#e3f1ec" offset=".40625"/>
   <stop stop-color="#e3f1ed" offset=".42188"/>
   <stop stop-color="#e2f1ed" offset=".4375"/>
   <stop stop-color="#e2f1ee" offset=".46875"/>
   <stop stop-color="#e2f1ee" offset=".48438"/>
   <stop stop-color="#e1f2ef" offset=".5"/>
   <stop stop-color="#e1f2ef" offset=".51562"/>
   <stop stop-color="#e0f2f0" offset=".53125"/>
   <stop stop-color="#e0f2f1" offset=".54688"/>
   <stop stop-color="#e0f1f1" offset=".5625"/>
   <stop stop-color="#e0f1f2" offset=".59375"/>
   <stop stop-color="#dff1f2" offset=".60938"/>
   <stop stop-color="#dff1f2" offset=".625"/>
   <stop stop-color="#def1f3" offset=".65625"/>
   <stop stop-color="#def1f3" offset=".67188"/>
   <stop stop-color="#ddf1f4" offset=".6875"/>
   <stop stop-color="#ddf1f4" offset=".70312"/>
   <stop stop-color="#ddf1f5" offset=".71875"/>
   <stop stop-color="#ddf1f5" offset=".75"/>
   <stop stop-color="#dcf0f6" offset=".76562"/>
   <stop stop-color="#dcf0f6" offset=".78125"/>
   <stop stop-color="#dbf0f7" offset=".8125"/>
   <stop stop-color="#dbf1f7" offset=".82812"/>
   <stop stop-color="#daf1f7" offset=".84375"/>
   <stop stop-color="#d9f0f6" offset=".85938"/>
   <stop stop-color="#d8f0f6" offset=".875"/>
   <stop stop-color="#d7f0f5" offset=".88281"/>
   <stop stop-color="#d7f0f5" offset=".89062"/>
   <stop stop-color="#d7f0f4" offset=".89844"/>
   <stop stop-color="#d6f0f4" offset=".90625"/>
   <stop stop-color="#d5f0f3" offset=".92188"/>
   <stop stop-color="#d5f0f3" offset=".9375"/>
   <stop stop-color="#d4f0f2" offset=".95312"/>
   <stop stop-color="#d4eff1" offset=".96094"/>
   <stop stop-color="#d3eff1" offset=".96875"/>
   <stop stop-color="#d2eff1" offset=".97656"/>
   <stop stop-color="#d2eff0" offset=".98438"/>
   <stop stop-color="#d1eff0" offset="1"/>
  </linearGradient>
 </defs>
 <g>
  <g clip-path="url(#clip1)">
   <g clip-path="url(#clip2)">
    <rect width="750" height="500" fill="url(#linear0)"/>
   </g>
  </g>
  <g clip-path="url(#clip3)">
   <g clip-path="url(#clip4)">
    <g clip-path="url(#clip5)">
     <path d="m483.05 144h266.95v-100.69h-266.95z" fill="url(#linear1)"/>
    </g>
   </g>
  </g>
  <g clip-path="url(#clip6)">
   <g clip-path="url(#clip7)">
    <g clip-path="url(#clip8)">
     <path d="m746.61 2.2383h3.3945v-2.2383h-3.3945z" fill="url(#linear2)"/>
    </g>
   </g>
  </g>
  <g clip-path="url(#clip9)">
   <g clip-path="url(#clip10)">
    <g clip-path="url(#clip11)">
     <path d="m531.12 82.965h35.988v-19.809h-35.988z" fill="url(#linear3)"/>
    </g>
   </g>
  </g>
  <g clip-path="url(#clip12)">
   <g clip-path="url(#clip13)">
    <g clip-path="url(#clip14)">
     <path d="m609.66 118.83h140.34v-118.83h-140.34z" fill="url(#linear4)"/>
    </g>
   </g>
  </g>
  <g clip-path="url(#clip15)">
   <g clip-path="url(#clip16)">
    <g clip-path="url(#clip17)">
     <path d="m0 139h213.01v-139h-213.01z" fill="url(#linear5)"/>
    </g>
   </g>
  </g>
  <g clip-path="url(#clip18)">
   <g clip-path="url(#clip19)">
    <g clip-path="url(#clip20)">
     <path d="m39.613 117.28h141.74v-79.777h-141.74z" fill="url(#linear6)"/>
    </g>
   </g>
  </g>
  <g clip-path="url(#clip21)">
   <g clip-path="url(#clip22)">
    <g clip-path="url(#clip23)">
     <path d="m28.094 15.852h43.461v-15.852h-43.461z" fill="url(#linear7)"/>
    </g>
   </g>
  </g>
  <g clip-path="url(#clip24)">
   <g clip-path="url(#clip25)">
    <g clip-path="url(#clip26)">
     <path d="m0 124.77h35.43v-81.148h-35.43z" fill="url(#linear8)"/>
    </g>
   </g>
  </g>
 </g>
</svg>
