<svg width="500" height="130" version="1.1" viewBox="0 0 132 34.4" xmlns="http://www.w3.org/2000/svg">
 <defs>
  <clipPath id="clipPath1376">
   <path d="m3910 1507s-222 357-658 580c-506 260-919 504-1152 346-233-158-240-162-540-294-299-132-655-149-655-149l226-540 1776-296z"/>
  </clipPath>
  <linearGradient id="linearGradient1384" x2="1" gradientTransform="matrix(0 -848 -848 0 2408 2761)" gradientUnits="userSpaceOnUse">
   <stop stop-color="#094747" offset="0"/>
   <stop stop-color="#094747" offset=".0168"/>
   <stop stop-color="#1c7072" offset="1"/>
  </linearGradient>
  <clipPath id="clipPath1394">
   <path d="m3136 1470c873 271 1029 598 1344 618 315 19.5 542 260 756 260 291 0 587-320 865-426 279-106 537-127 537-127v-511l-906-201z"/>
  </clipPath>
  <linearGradient id="linearGradient1402" x2="1" gradientTransform="matrix(0 -806 -806 0 4887 2611)" gradientUnits="userSpaceOnUse">
   <stop stop-color="#094747" offset="0"/>
   <stop stop-color="#094747" offset=".0168"/>
   <stop stop-color="#1c7072" offset="1"/>
  </linearGradient>
  <clipPath id="clipPath1412">
   <path d="m888 1844s901-137 1634 69.6c734 207 845 328 1039 174 194-154 349-148 611-338 262-191 997-355 997-355l-659-502-2889 261z"/>
  </clipPath>
  <linearGradient id="linearGradient1420" x2="1" gradientTransform="matrix(0 -807 -807 0 3029 2421)" gradientUnits="userSpaceOnUse">
   <stop stop-color="#094747" offset="0"/>
   <stop stop-color="#094747" offset=".0168"/>
   <stop stop-color="#1c7072" offset="1"/>
  </linearGradient>
 </defs>
 <g transform="translate(0 -263)">
  <g transform="matrix(.0231 0 0 -.0231 -20.9 321)">
   <g clip-path="url(#clipPath1376)">
    <path d="m3910 1507s-222 357-658 580c-506 260-919 504-1152 346-233-158-240-162-540-294-299-132-655-149-655-149l226-540 1776-296 1e3 354" fill="url(#linearGradient1384)"/>
   </g>
  </g>
  <g transform="matrix(.0231 0 0 -.0231 -20.9 321)">
   <g clip-path="url(#clipPath1394)">
    <path d="m3136 1470c873 271 1029 598 1344 618 315 19.5 542 260 756 260 291 0 587-320 865-426 279-106 537-127 537-127v-511l-906-201-2597 387" fill="url(#linearGradient1402)"/>
   </g>
  </g>
  <g transform="matrix(.0231 0 0 -.0231 -11.1 318)">
   <g clip-path="url(#clipPath1412)">
    <path d="m888 1844s901-137 1634 69.6c734 207 845 328 1039 174 194-154 349-148 611-338 262-191 997-355 997-355l-659-502-2889 261-735 691" fill="url(#linearGradient1420)"/>
   </g>
  </g>
 </g>
</svg>
